# Blender v2.83.4 OBJ File: 'demoscene.blend'
# www.blender.org
o Cube.085_Cube.281
v -11.799119 69.932373 -32.065483
v -6.459144 69.557137 -28.097786
v -3.326658 69.068245 -25.770294
v 2.846597 67.699432 -21.183451
v 6.126371 67.121292 -18.746521
v 8.598948 66.870644 -16.909349
v 11.227296 66.800247 -14.956442
v 13.855642 66.870644 -13.003530
v 16.191113 67.099670 -11.268235
v 19.613811 67.700562 -8.725103
v 25.688992 69.048805 -4.211139
v 27.873592 69.419632 -2.587936
v 30.597000 69.706108 -0.564399
v 34.489468 69.937645 2.327774
v 14.993496 69.949089 36.708466
v -20.778217 63.613407 10.129429
v -14.556761 63.257301 14.752088
v -4.412440 63.546135 22.289499
v 2.451329 64.341408 27.389404
v -39.326218 65.119247 -3.652067
v -6.902691 67.141060 20.439201
v 10.377272 69.923019 33.278526
v -26.479887 69.021233 5.892988
v -28.812660 69.419632 4.159695
v -3.817431 67.695557 22.731604
v -9.538015 66.870644 18.481108
v -12.166363 66.795219 16.528196
v -20.515240 67.695549 10.324829
v -31.383709 69.694923 2.249360
v -35.428528 69.937645 -0.756016
v 4.994162 69.491188 29.278778
v 2.251427 69.043831 27.240875
v -14.794710 66.870644 14.575287
v -17.284185 67.117065 12.725561
v 16.479946 63.377888 -11.053619
v 0.539309 63.847248 -22.897802
v 12.846796 63.257732 -13.753124
v -11.799157 65.099800 -32.065514
v 34.328869 65.103386 2.208447
v 29.200573 64.753868 -1.601972
v 20.870449 63.719944 -7.791396
v -6.608397 64.741722 -28.208685
v 8.599023 63.280632 -16.909292
v 4.905277 63.433857 -19.653809
v -39.326225 69.949089 -3.652075
v -15.932567 65.116524 -35.136711
v -15.932567 69.949089 -35.136711
v -30.143408 64.761299 3.170926
v -8.509510 63.305428 19.245306
v -35.151665 65.093086 -0.550301
v 11.018719 65.101822 33.755135
v 7.216867 64.875107 30.930288
v 38.387154 69.949089 5.223829
v 38.387154 65.116524 5.223829
v 14.993496 65.116524 36.708466
v -9.190928 -0.000003 -39.374687
v -5.275168 -0.000003 -36.465206
v -12.100410 -0.000003 -35.458931
v -8.184649 -0.000003 -32.549446
v -37.442314 -0.000003 -1.352219
v -33.526554 -0.000003 1.557263
v -36.436035 -0.000003 5.473023
v 36.436035 -0.000003 -5.473025
v 33.526554 -0.000003 -1.557265
v 37.442314 -0.000003 1.352215
v 8.184650 -0.000003 32.549446
v 12.100409 -0.000003 35.458923
v 5.275169 -0.000003 36.465206
v -34.270378 19.662720 -2.171589
v -30.615669 19.662720 0.543928
v -31.197847 15.730178 0.746594
v -34.904770 15.730175 -2.007713
v -8.314793 19.662720 -29.469976
v 30.615662 19.662720 -0.543941
v 8.314785 19.662720 29.469963
v 11.995676 15.730178 32.840168
v 8.288757 15.730178 30.085859
v 34.904758 15.730178 2.007703
v 31.197840 15.730178 -0.746606
v 32.034996 26.544666 -3.470684
v -8.288765 15.730178 -30.085871
v -11.995686 15.730178 -32.840179
v 29.596851 26.544670 -0.189278
v -5.922200 26.544672 -31.673569
v -8.360345 26.544672 -28.392162
v -29.596863 26.544672 0.189261
v -32.035007 26.544672 3.470669
v 8.360333 26.544672 28.392147
v 5.922186 26.544670 31.673555
v 31.388424 30.444443 -3.176514
v 40.351795 -0.000003 -2.563545
v 34.270370 19.662720 2.171574
v 29.019524 30.444443 0.011700
v 8.386143 30.444443 27.781384
v 11.969493 19.662720 32.185478
v 9.190926 -0.000003 39.374687
v 6.017243 30.444443 30.969595
v -29.019535 30.444445 -0.011715
v -31.388435 30.444445 3.176497
v -40.351799 -0.000003 2.563543
v -6.017255 30.444445 -30.969612
v -8.386155 30.444445 -27.781399
v -11.969503 19.662720 -32.185493
v 9.910678 64.860420 27.026670
v 11.668467 64.858261 24.661247
v 6.848495 64.546417 24.813770
v 26.979565 64.857521 4.054801
v 28.737007 64.859901 1.689149
v 25.734425 64.546417 -0.604087
v 23.970926 64.547577 1.769264
v 8.611906 64.547691 22.440334
v -28.734486 64.874008 -1.690090
v -26.977331 64.871315 -4.055391
v -25.731577 64.563698 0.602752
v -23.968399 64.564621 -1.770158
v -11.668392 64.871254 -24.659115
v -9.910848 64.874237 -27.024063
v -8.612037 64.564468 -22.437742
v -6.848932 64.563698 -24.810680
vt 0.600809 0.760868
vt 0.575706 0.963652
vt 0.575706 0.760869
vt 0.602328 0.963652
vt 0.783345 0.963652
vt 0.768274 0.760868
vt 0.785284 0.760868
vt 0.876787 0.963652
vt 0.862531 0.760868
vt 0.897248 0.760868
vt 0.636756 0.963652
vt 0.626880 0.760869
vt 0.643478 0.760869
vt 0.859207 0.963652
vt 0.844770 0.760868
vt 0.697194 0.963652
vt 0.658593 0.760869
vt 0.697399 0.760868
vt 0.845053 0.963652
vt 0.805529 0.963652
vt 0.718452 0.963652
vt 0.718346 0.760869
vt 0.657033 0.963652
vt 0.926979 0.963652
vt 0.901876 0.963652
vt 0.926979 0.760868
vt 0.618322 0.199045
vt 0.821106 0.185921
vt 0.821106 0.209340
vt 0.618322 0.027207
vt 0.618322 0.000319
vt 0.821106 0.026941
vt 0.618322 0.325059
vt 0.618322 0.300567
vt 0.821106 0.324521
vt 0.618322 0.160093
vt 0.821106 0.158560
vt 0.821747 0.000319
vt 0.841724 0.000319
vt 0.841724 0.203101
vt 0.999559 0.552116
vt 0.999681 0.577218
vt 0.979703 0.577218
vt 0.988063 0.435243
vt 0.973647 0.457756
vt 0.972176 0.417683
vt 0.986954 0.419217
vt 0.988149 0.368394
vt 0.986954 0.385360
vt 0.972252 0.378734
vt 0.986712 0.402289
vt 0.997492 0.509504
vt 0.998582 0.526066
vt 0.978074 0.518087
vt 0.274225 0.781345
vt 0.274227 0.578563
vt 0.294204 0.781345
vt 0.294204 0.578563
vt 0.978018 0.637898
vt 0.996001 0.659043
vt 0.974491 0.683999
vt 0.995923 0.845933
vt 0.978080 0.868559
vt 0.974048 0.814863
vt 0.999681 0.577857
vt 0.979553 0.604477
vt 0.979702 0.577857
vt 0.988053 0.719937
vt 0.986954 0.735856
vt 0.972113 0.735856
vt 0.986712 0.752784
vt 0.972082 0.763216
vt 0.986954 0.769713
vt 0.987973 0.784748
vt 0.998636 0.877542
vt 0.999559 0.902612
vt 0.805286 0.760868
vt 0.768274 0.963652
vt 0.734411 0.760868
vt 0.734411 0.963652
vt 0.821106 0.237616
vt 0.618322 0.225465
vt 0.821106 0.134755
vt 0.618322 0.119986
vt 0.821106 0.106639
vt 0.618322 0.059475
vt 0.821106 0.060401
vt 0.821106 0.291465
vt 0.821745 0.203102
vt 0.978663 0.277433
vt 0.997727 0.291759
vt 0.976505 0.308123
vt 0.990391 0.456058
vt 0.914845 0.373336
vt 0.922431 0.231436
vt 0.937714 0.231436
vt 0.973289 0.352343
vt 0.995885 0.309422
vt 0.990391 0.348520
vt 0.995796 0.494485
vt 0.999423 0.257089
vt 0.999533 0.604478
vt 0.979559 0.901578
vt 0.997933 0.638864
vt 0.997492 0.860000
vt 0.848973 0.760230
vt 0.766993 0.721830
vt 0.783389 0.724466
vt 0.578427 0.411457
vt 0.574909 0.395268
vt 0.589856 0.365792
vt 0.298776 0.000319
vt 0.323981 0.001172
vt 0.332280 0.113412
vt 0.848973 0.735010
vt 0.783389 0.525882
vt 0.766993 0.528518
vt 0.848973 0.490117
vt 0.363834 0.378054
vt 0.381882 0.405740
vt 0.380135 0.422215
vt 0.362018 0.088277
vt 0.365536 0.104466
vt 0.350590 0.133942
vt 0.273586 0.848676
vt 0.191607 0.810276
vt 0.208003 0.812912
vt 0.576612 0.121679
vt 0.558564 0.093994
vt 0.560310 0.077519
vt 0.208002 0.614328
vt 0.191606 0.616964
vt 0.273586 0.578563
vt 0.592478 0.010255
vt 0.617684 0.011107
vt 0.575068 0.490117
vt 0.575067 0.515337
vt 0.463171 0.527426
vt 0.273586 0.823456
vt 0.575068 0.783989
vt 0.575067 0.809210
vt 0.463169 0.771899
vt 0.371693 0.132797
vt 0.000319 0.192466
vt 0.026992 0.163644
vt 0.023858 0.192466
vt 0.274599 0.192466
vt 0.271465 0.163644
vt 0.298138 0.192466
vt 0.384937 0.376910
vt 0.568752 0.366937
vt 0.298138 0.385777
vt 0.271465 0.414599
vt 0.274599 0.385777
vt 0.555508 0.122824
vt 0.023858 0.385777
vt 0.026992 0.414599
vt 0.000319 0.385777
vt 0.028768 0.147311
vt 0.446732 0.529202
vt 0.574281 0.138049
vt 0.028768 0.430931
vt 0.333499 0.129902
vt 0.269689 0.430931
vt 0.269689 0.147311
vt 0.446730 0.770123
vt 0.821106 0.000319
vt 0.979558 0.550333
vt 0.979577 0.252960
vt 0.990418 0.698813
vt 0.972850 0.712064
vt 0.972547 0.786628
vt 0.273587 0.603783
vt 0.848973 0.515338
vt 0.273683 0.575090
vt 0.877717 0.231511
vt 0.870145 0.373336
vt 0.849611 0.373336
vt 0.870145 0.614256
vt 0.877732 0.756155
vt 0.849611 0.614256
vt 0.003191 0.632018
vt 0.003191 0.647256
vt 0.751342 0.963652
vt 0.751342 0.760868
vt 0.821106 0.350659
vt 0.618322 0.350659
vt 0.618322 0.269800
vt 0.999681 0.227361
vt 0.979703 0.927714
vt 0.990424 0.806794
vt 0.642822 0.299695
vt 0.657853 0.280121
vt 0.642567 0.280121
vt 0.301627 0.774116
vt 0.302907 0.754583
vt 0.643542 0.351297
vt 0.618322 0.376518
vt 0.618322 0.351297
vt 0.578527 0.706766
vt 0.643542 0.454093
vt 0.618322 0.428873
vt 0.643542 0.428873
vt 0.003194 0.795222
vt 0.643542 0.403014
vt 0.618322 0.428235
vt 0.618322 0.403014
vt 0.024767 0.003205
vt 0.573374 0.283151
vt 0.553898 0.281188
vt 0.618322 0.402376
vt 0.643542 0.377156
vt 0.643542 0.402376
vt 0.946174 0.558340
vt 0.962885 0.624218
vt 0.939010 0.624218
vt 0.617684 0.474846
vt 0.962885 0.822802
vt 0.939009 0.822802
vt 0.939009 0.293239
vt 0.962885 0.491823
vt 0.939009 0.491823
vt 0.946174 0.557702
vt 0.567294 0.011621
vt 0.946174 0.227361
vt 0.962885 0.293239
vt 0.322762 0.024887
vt 0.347968 0.489479
vt 0.373151 0.488113
vt 0.946174 0.888681
vt 0.914845 0.614256
vt 0.894310 0.373336
vt 0.657865 0.069913
vt 0.642832 0.050340
vt 0.642582 0.069913
vt 0.922417 0.756080
vt 0.937702 0.756080
vt 0.273683 0.003151
vt 0.254150 0.004423
vt 0.578525 0.543583
vt 0.578525 0.558819
vt 0.806015 0.050340
vt 0.790982 0.069913
vt 0.806266 0.069913
vt 0.324600 0.274783
vt 0.344164 0.274165
vt 0.024767 0.575040
vt 0.790995 0.280121
vt 0.806026 0.299695
vt 0.806280 0.280121
vt 0.301685 0.525199
vt 0.302988 0.544731
vt 0.254150 0.573818
vt 0.893003 0.231511
vt 0.893015 0.756155
vt 0.979702 0.227361
vt 0.999681 0.927714
vt 0.658060 0.299695
vt 0.643542 0.376518
vt 0.578527 0.691530
vt 0.618322 0.454093
vt 0.003194 0.779984
vt 0.643542 0.428235
vt 0.044299 0.004499
vt 0.618322 0.377156
vt 0.971394 0.558340
vt 0.592500 0.476213
vt 0.971394 0.557702
vt 0.971394 0.227361
vt 0.347945 0.023521
vt 0.971394 0.888681
vt 0.894310 0.614256
vt 0.658069 0.050339
vt 0.790779 0.050339
vt 0.044299 0.573745
vt 0.790787 0.299696
vn 0.0201 0.9997 0.0151
vn 0.0026 1.0000 0.0018
vn 0.0019 1.0000 0.0014
vn 0.0240 0.9996 0.0173
vn -0.0875 0.9940 -0.0649
vn -0.0421 0.9986 -0.0313
vn -0.0903 0.9936 -0.0672
vn -0.0527 0.9978 -0.0398
vn -0.0785 0.9953 -0.0575
vn -0.0278 0.9994 -0.0199
vn 0.0730 0.9959 0.0534
vn 0.0533 0.9978 0.0401
vn 0.0888 0.9938 0.0665
vn -0.0879 0.9940 -0.0656
vn -0.1228 0.9882 -0.0911
vn 0.1267 0.9875 0.0941
vn 0.1251 0.9878 0.0930
vn 0.1276 0.9873 0.0947
vn -0.1245 0.9879 -0.0926
vn -0.1266 0.9875 -0.0939
vn 0.0887 0.9939 0.0661
vn 0.0889 0.9938 0.0661
vn 0.1206 0.9887 0.0891
vn -0.0019 1.0000 -0.0014
vn -0.0197 0.9997 -0.0151
vn -0.0036 1.0000 -0.0024
vn 0.0212 -0.9996 0.0165
vn 0.0092 -0.9999 0.0063
vn 0.0360 -0.9990 0.0261
vn -0.0233 -0.9996 -0.0175
vn -0.0038 -1.0000 -0.0030
vn -0.0235 -0.9996 -0.0173
vn 0.0204 -0.9997 0.0150
vn 0.0552 -0.9977 0.0404
vn 0.0226 -0.9996 0.0172
vn -0.0163 -0.9998 -0.0110
vn -0.0149 -0.9998 -0.0116
vn -0.8027 -0.0000 -0.5964
vn -0.5964 -0.0000 0.8027
vn 0.8027 0.0000 0.5964
vn 0.5964 -0.0000 -0.8027
vn -0.1277 0.9872 -0.0950
vn -0.0401 0.9987 -0.0298
vn 0.0410 0.9987 0.0305
vn 0.0411 0.9987 0.0306
vn 0.0652 -0.9967 0.0482
vn 0.0555 -0.9976 0.0422
vn -0.0433 -0.9985 -0.0328
vn -0.0584 -0.9974 -0.0424
vn -0.0706 -0.9961 -0.0529
vn -0.0609 -0.9971 -0.0450
vn -0.0625 -0.9970 -0.0462
vn 0.0617 -0.9970 0.0462
vn 0.7996 -0.0878 0.5941
vn -0.7983 0.1041 -0.5932
vn -0.5890 0.1574 0.7927
vn -0.7996 -0.0878 -0.5941
vn 0.7983 0.1041 0.5932
vn 0.5890 0.1574 -0.7927
vn -0.5915 -0.1286 0.7960
vn 0.5915 -0.1286 -0.7960
vn -0.0026 -1.0000 -0.0019
vn -0.0000 1.0000 0.0000
vn -0.0001 1.0000 0.0001
vn 0.0021 -1.0000 0.0015
vn 0.0024 -1.0000 0.0018
vn 0.0736 -0.9958 0.0548
vn -0.0659 0.9966 -0.0493
vn -0.0661 0.9966 -0.0492
vn -0.0667 0.9966 -0.0491
vn 0.0000 -1.0000 -0.0000
vn 0.0655 0.9967 0.0484
vn 0.0655 0.9967 0.0482
vn 0.0655 0.9966 0.0491
vn 0.0650 0.9967 0.0489
vn 0.0653 0.9967 0.0488
vn 0.0659 0.9966 0.0486
vn -0.0661 0.9966 -0.0490
vn -0.0661 0.9966 -0.0488
vn -0.0661 0.9966 -0.0496
vn -0.0653 0.9966 -0.0495
vn 0.0655 0.9967 0.0475
vn 0.0644 0.9967 0.0491
vn -0.0661 0.9967 -0.0481
s 1
f 30/1/1 47/2/2 45/3/3
f 1/4/4 47/2/2 30/1/1
f 9/5/5 26/6/6 21/7/7
f 13/8/8 31/9/9 22/10/10
f 2/11/11 29/12/12 24/13/13
f 12/14/14 32/15/15 31/9/9
f 4/16/16 23/17/17 28/18/18
f 13/8/8 12/14/14 31/9/9
f 11/19/19 10/20/20 32/15/15
f 5/21/21 4/16/16 34/22/22
f 4/16/16 3/23/23 23/17/17
f 53/24/24 14/25/25 15/26/26
f 49/27/27 37/28/28 35/29/29
f 50/30/30 20/31/31 38/32/32
f 51/33/33 52/34/34 39/35/35
f 17/36/36 43/37/37 37/28/28
f 49/27/27 17/36/36 37/28/28
f 47/38/38 46/39/38 20/40/38
f 30/41/39 45/42/39 20/43/39
f 34/44/39 16/45/39 17/46/39
f 33/47/39 34/44/39 17/46/39
f 21/48/39 26/49/39 49/50/39
f 27/51/39 33/47/39 17/46/39
f 24/52/39 29/53/39 48/54/39
f 53/55/40 15/56/40 54/57/40
f 15/56/40 55/58/40 54/57/40
f 42/59/41 3/60/41 36/61/41
f 11/62/41 40/63/41 41/64/41
f 47/65/41 38/66/41 46/67/41
f 5/68/41 6/69/41 43/70/41
f 6/69/41 7/71/41 37/72/41
f 8/73/41 9/74/41 37/72/41
f 13/75/41 14/76/41 40/63/41
f 15/26/26 14/25/25 22/10/10
f 32/15/15 10/20/20 25/77/42
f 9/5/5 8/78/43 26/6/6
f 34/22/22 4/16/16 28/18/18
f 12/14/14 11/19/19 32/15/15
f 33/79/44 6/80/45 34/22/22
f 6/80/45 5/21/21 34/22/22
f 41/81/46 18/82/47 35/29/29
f 43/37/37 17/36/36 44/83/48
f 44/83/48 16/84/49 36/85/50
f 16/84/49 48/86/51 36/85/50
f 42/87/52 48/86/51 38/32/32
f 39/35/35 52/34/34 40/88/53
f 48/86/51 50/30/30 38/32/32
f 45/89/38 47/38/38 20/40/38
f 52/90/39 31/91/39 19/92/39
f 34/44/39 28/93/39 48/54/39
f 102/94/54 119/95/54 118/96/54
f 18/97/39 32/98/39 25/99/39
f 28/93/39 23/100/39 48/54/39
f 52/90/39 22/101/39 31/91/39
f 19/92/39 31/91/39 32/98/39
f 23/100/39 24/52/39 48/54/39
f 43/70/41 6/69/41 37/72/41
f 47/65/41 1/102/41 38/66/41
f 40/63/41 14/76/41 39/103/41
f 42/59/41 2/104/41 3/60/41
f 11/62/41 12/105/41 40/63/41
f 100/106/55 69/107/55 72/108/55
f 71/109/54 70/110/54 87/111/54
f 100/112/56 62/113/56 87/114/56
f 100/106/55 72/108/55 60/115/55
f 82/116/55 103/117/55 56/118/55
f 84/119/54 73/120/54 81/121/54
f 79/122/57 74/123/57 80/124/57
f 91/125/58 92/126/58 78/127/58
f 89/128/57 75/129/57 77/130/57
f 76/131/58 95/132/58 96/133/58
f 68/134/56 96/135/56 89/128/56
f 91/136/59 63/137/59 80/138/59
f 91/125/58 78/127/58 65/139/58
f 57/140/59 56/141/59 84/142/59
f 74/123/57 83/143/57 80/124/57
f 92/144/60 83/145/60 74/146/60
f 73/147/60 85/148/60 103/149/60
f 84/119/54 85/150/54 73/120/54
f 70/110/54 86/151/54 87/111/54
f 69/152/61 86/153/61 70/154/61
f 89/128/57 88/155/57 75/129/57
f 75/156/61 88/157/61 95/158/61
f 92/144/60 93/159/60 83/145/60
f 80/138/59 90/160/59 91/136/59
f 96/135/56 97/161/56 89/128/56
f 88/157/61 94/162/61 95/158/61
f 87/114/56 99/163/56 100/112/56
f 69/152/61 98/164/61 86/153/61
f 85/148/60 102/165/60 103/149/60
f 56/141/59 101/166/59 84/142/59
f 20/31/31 46/167/62 38/32/32
f 49/27/27 35/29/29 18/82/47
f 36/85/50 48/86/51 42/87/52
f 21/48/39 49/50/39 18/97/39
f 16/45/39 34/44/39 48/54/39
f 25/99/39 21/48/39 18/97/39
f 30/41/39 20/43/39 50/168/39
f 51/169/39 22/101/39 52/90/39
f 36/61/41 4/170/41 44/171/41
f 9/74/41 35/172/41 37/72/41
f 13/8/8 22/10/10 14/25/25
f 96/133/58 67/173/58 76/131/58
f 56/118/55 58/174/55 82/116/55
f 113/175/61 98/164/61 69/152/61
f 106/176/57 94/177/57 97/178/57
f 98/179/54 114/180/54 99/181/54
f 104/182/58 95/132/58 105/183/58
f 3/23/23 24/13/13 23/17/17
f 10/20/20 21/7/7 25/77/42
f 7/184/63 26/6/6 8/78/43
f 7/184/63 33/79/44 27/185/64
f 29/12/12 1/4/4 30/1/1
f 51/33/33 54/186/65 55/187/66
f 19/188/67 18/82/47 41/81/46
f 17/36/36 16/84/49 44/83/48
f 51/169/39 15/189/39 22/101/39
f 52/34/34 19/188/67 40/88/53
f 41/81/46 40/88/53 19/188/67
f 32/98/39 18/97/39 19/92/39
f 27/51/39 49/50/39 26/49/39
f 50/168/39 29/53/39 30/41/39
f 14/76/41 54/190/41 39/103/41
f 35/172/41 10/191/41 41/64/41
f 3/60/41 4/170/41 36/61/41
f 44/171/41 4/170/41 5/68/41
f 5/68/41 43/70/41 44/171/41
f 2/104/41 38/66/41 1/102/41
f 10/191/41 11/62/41 41/64/41
f 7/71/41 8/73/41 37/72/41
f 104/192/68 111/193/69 106/194/70
f 12/105/41 13/75/41 40/63/41
f 101/166/59 117/195/59 119/196/59
f 58/197/71 57/198/71 59/199/71
f 112/200/55 69/107/55 100/106/55
f 62/201/71 60/202/71 61/203/71
f 108/204/58 92/126/58 91/125/58
f 64/205/71 91/206/71 65/207/71
f 107/208/60 93/159/60 92/144/60
f 97/161/56 104/209/56 106/210/56
f 67/211/71 68/212/71 66/213/71
f 70/110/54 81/121/54 73/120/54
f 61/214/61 72/215/61 71/216/61
f 62/217/54 71/109/54 87/111/54
f 71/216/71 82/218/71 81/219/71
f 79/220/71 76/221/71 77/222/71
f 78/127/58 95/132/58 76/131/58
f 76/221/61 66/223/61 77/222/61
f 68/134/57 77/130/57 66/224/57
f 64/225/60 78/226/60 79/220/60
f 63/227/57 79/122/57 80/124/57
f 57/228/54 81/121/54 59/229/54
f 82/218/60 59/230/60 81/219/60
f 69/152/63 73/147/63 103/149/63
f 103/117/55 72/108/55 69/107/55
f 74/123/57 77/130/57 75/129/57
f 92/144/63 75/156/63 95/158/63
f 90/160/59 84/142/59 101/166/59
f 97/161/56 87/114/56 89/128/56
f 87/111/71 88/155/71 89/128/71
f 80/124/71 85/150/71 84/119/71
f 93/231/63 101/232/63 102/94/63
f 93/159/60 85/148/60 83/145/60
f 98/179/63 97/178/63 94/177/63
f 86/153/61 94/162/61 88/157/61
f 115/233/72 112/234/73 114/235/74
f 109/236/57 93/231/57 110/237/57
f 116/238/60 102/165/60 118/239/60
f 117/240/55 103/117/55 116/241/55
f 117/242/75 118/243/76 119/244/77
f 112/245/56 99/163/56 114/246/56
f 94/162/61 105/247/61 95/158/61
f 110/248/78 108/249/79 109/250/80
f 108/251/59 90/160/59 109/252/59
f 102/94/54 101/232/54 119/95/54
f 113/175/61 115/253/61 98/164/61
f 106/176/57 111/254/57 94/177/57
f 98/179/54 115/255/54 114/180/54
f 104/182/58 96/133/58 95/132/58
f 3/23/23 2/11/11 24/13/13
f 10/20/20 9/5/5 21/7/7
f 7/184/63 27/185/64 26/6/6
f 7/184/63 6/80/45 33/79/44
f 29/12/12 2/11/11 1/4/4
f 51/33/33 39/35/35 54/186/65
f 51/169/39 55/256/39 15/189/39
f 27/51/39 17/46/39 49/50/39
f 50/168/39 48/54/39 29/53/39
f 14/76/41 53/257/41 54/190/41
f 35/172/41 9/74/41 10/191/41
f 2/104/41 42/59/41 38/66/41
f 104/192/68 105/258/81 111/193/69
f 101/166/59 56/141/59 117/195/59
f 58/197/71 56/259/71 57/198/71
f 112/200/55 113/260/55 69/107/55
f 62/201/71 100/261/71 60/202/71
f 108/204/58 107/262/58 92/126/58
f 64/205/71 63/263/71 91/206/71
f 107/208/60 110/264/60 93/159/60
f 97/161/56 96/135/56 104/209/56
f 67/211/71 96/265/71 68/212/71
f 70/110/54 71/109/54 81/121/54
f 61/214/61 60/266/61 72/215/61
f 62/217/54 61/267/54 71/109/54
f 71/216/71 72/215/71 82/218/71
f 79/220/71 78/226/71 76/221/71
f 78/127/58 92/126/58 95/132/58
f 76/221/61 67/268/61 66/223/61
f 68/134/57 89/128/57 77/130/57
f 64/225/60 65/269/60 78/226/60
f 63/227/57 64/270/57 79/122/57
f 57/228/54 84/119/54 81/121/54
f 82/218/60 58/271/60 59/230/60
f 69/152/63 70/154/63 73/147/63
f 103/117/55 82/116/55 72/108/55
f 74/123/57 79/122/57 77/130/57
f 92/144/63 74/146/63 75/156/63
f 90/160/59 80/138/59 84/142/59
f 97/161/56 99/163/56 87/114/56
f 87/111/71 86/151/71 88/155/71
f 80/124/71 83/143/71 85/150/71
f 93/231/63 90/272/63 101/232/63
f 93/159/60 102/165/60 85/148/60
f 98/179/63 99/181/63 97/178/63
f 86/153/61 98/164/61 94/162/61
f 115/233/72 113/273/82 112/234/73
f 109/236/57 90/272/57 93/231/57
f 116/238/60 103/149/60 102/165/60
f 117/240/55 56/118/55 103/117/55
f 117/242/75 116/274/83 118/243/76
f 112/245/56 100/112/56 99/163/56
f 94/162/61 111/275/61 105/247/61
f 110/248/78 107/276/84 108/249/79
f 108/251/59 91/136/59 90/160/59
